<svg width="1491" height="578" viewBox="0 0 1491 578" fill="none" xmlns="http://www.w3.org/2000/svg">
<path d="M225 56.8675C255.94 39.0042 294.06 39.0042 325 56.8675L463.157 136.632C494.097 154.496 513.157 187.508 513.157 223.235V382.765C513.157 418.492 494.097 451.504 463.157 469.368L325 549.133C294.06 566.996 255.94 566.996 225 549.133L86.843 469.368C55.9029 451.504 36.843 418.492 36.843 382.765V223.235C36.843 187.508 55.9029 154.496 86.843 136.632L225 56.8675Z" fill="white"/>
<path d="M279 495V356.524C279 319.432 299.531 285.387 332.337 268.079L450 206" stroke="black" stroke-width="25" stroke-linecap="round"/>
<path d="M767.37 426.29C754.37 426.29 742.93 425.51 733.05 423.95C723.17 422.65 714.2 420.44 706.14 417.32C698.08 414.2 689.76 410.43 681.18 406.01V363.11C691.32 371.17 703.54 377.8 717.84 383C732.4 388.2 748 390.8 764.64 390.8C780.76 390.8 792.72 387.55 800.52 381.05C808.58 374.29 812.61 365.06 812.61 353.36C812.61 344.26 809.62 336.98 803.64 331.52C797.92 325.8 790.25 320.99 780.63 317.09C771.01 313.19 760.74 309.29 749.82 305.39C741.5 302.27 733.31 299.02 725.25 295.64C717.19 292 709.91 287.58 703.41 282.38C696.91 276.92 691.71 270.03 687.81 261.71C683.91 253.39 681.96 243.12 681.96 230.9C681.96 222.32 683.65 213.61 687.03 204.77C690.41 195.93 695.48 188 702.24 180.98C709.26 173.7 718.36 167.98 729.54 163.82C740.98 159.4 754.63 157.19 770.49 157.19C780.89 157.19 789.86 157.84 797.4 159.14C805.2 160.44 812.48 162.52 819.24 165.38C826.26 167.98 833.8 171.23 841.86 175.13V217.25C835.36 213.09 828.73 209.19 821.97 205.55C815.47 201.91 808.32 198.92 800.52 196.58C792.72 194.24 784.01 192.94 774.39 192.68C763.47 192.42 754.5 193.72 747.48 196.58C740.46 199.44 735.13 203.47 731.49 208.67C727.85 213.87 726.03 219.85 726.03 226.61C726.03 235.71 728.24 242.99 732.66 248.45C737.34 253.65 743.84 258.07 752.16 261.71C760.48 265.09 770.1 268.47 781.02 271.85C790.64 274.97 800 278.48 809.1 282.38C818.2 286.28 826.26 291.09 833.28 296.81C840.3 302.27 845.89 309.16 850.05 317.48C854.47 325.8 856.68 336.07 856.68 348.29C856.68 361.81 853.56 374.55 847.32 386.51C841.34 398.21 831.72 407.83 818.46 415.37C805.46 422.65 788.43 426.29 767.37 426.29ZM973.077 427.85C955.137 427.85 939.667 424.99 926.667 419.27C913.927 413.29 904.047 404.45 897.027 392.75C890.007 381.05 886.497 366.49 886.497 349.07V226.22H927.447V343.22C927.447 359.86 931.087 372.21 938.367 380.27C945.907 388.07 957.477 391.97 973.077 391.97C988.677 391.97 1000.12 388.07 1007.4 380.27C1014.94 372.21 1018.71 359.86 1018.71 343.22V226.22H1058.1V349.07C1058.1 375.07 1050.56 394.7 1035.48 407.96C1020.66 421.22 999.857 427.85 973.077 427.85ZM1173.88 427.85C1154.9 427.59 1138.78 423.69 1125.52 416.15C1112.52 408.35 1102.64 397.17 1095.88 382.61C1089.38 368.05 1086.13 350.37 1086.13 329.57C1086.13 307.47 1088.86 289.4 1094.32 275.36C1100.04 261.32 1107.71 250.4 1117.33 242.6C1127.21 234.8 1138.26 229.47 1150.48 226.61C1162.96 223.49 1175.83 221.93 1189.09 221.93C1203.13 221.93 1215.87 223.75 1227.31 227.39C1238.75 231.03 1247.98 236.62 1255 244.16C1262.02 251.44 1265.53 260.93 1265.53 272.63V427.85C1265.53 438.25 1263.84 447.87 1260.46 456.71C1257.34 465.81 1252.14 473.87 1244.86 480.89C1237.84 487.91 1228.48 493.37 1216.78 497.27C1205.08 501.17 1190.78 503.12 1173.88 503.12C1160.36 503.12 1148.27 501.95 1137.61 499.61C1126.95 497.53 1118.11 495.32 1111.09 492.98V455.54C1115.25 457.1 1120.45 458.79 1126.69 460.61C1132.93 462.43 1139.82 463.99 1147.36 465.29C1155.16 466.85 1163.09 467.63 1171.15 467.63C1186.49 467.63 1197.93 465.68 1205.47 461.78C1213.27 457.88 1218.47 452.81 1221.07 446.57C1223.67 440.59 1224.97 434.09 1224.97 427.07V397.43L1235.89 406.4C1231.21 410.3 1225.36 413.94 1218.34 417.32C1211.58 420.44 1204.3 422.91 1196.5 424.73C1188.96 426.81 1181.42 427.85 1173.88 427.85ZM1180.51 394.7C1188.05 394.7 1195.72 393.79 1203.52 391.97C1211.32 389.89 1218.47 386.9 1224.97 383V280.43C1224.97 273.67 1223.15 268.73 1219.51 265.61C1216.13 262.23 1211.45 259.89 1205.47 258.59C1199.49 257.29 1193.12 256.64 1186.36 256.64C1170.5 256.64 1158.28 259.89 1149.7 266.39C1141.38 272.63 1135.66 281.21 1132.54 292.13C1129.42 303.05 1127.86 315.14 1127.86 328.4C1127.86 348.16 1132.15 364.15 1140.73 376.37C1149.31 388.59 1162.57 394.7 1180.51 394.7ZM1373.6 427.85C1363.46 427.85 1353.71 426.81 1344.35 424.73C1334.99 422.91 1326.41 419.66 1318.61 414.98C1311.07 410.3 1304.96 403.93 1300.28 395.87C1295.86 387.55 1293.65 377.28 1293.65 365.06C1293.65 350.5 1296.51 338.54 1302.23 329.18C1307.95 319.82 1316.14 312.8 1326.8 308.12C1337.46 303.44 1350.2 301.1 1365.02 301.1C1374.9 301.1 1383.74 301.88 1391.54 303.44C1399.6 305 1406.75 307.21 1412.99 310.07C1419.49 312.67 1424.95 315.66 1429.37 319.04L1433.66 345.95C1427.94 342.05 1420.27 338.8 1410.65 336.2C1401.03 333.34 1390.63 331.91 1379.45 331.91C1364.63 331.91 1353.32 334.51 1345.52 339.71C1337.98 344.91 1334.21 352.71 1334.21 363.11C1334.21 370.91 1336.42 377.28 1340.84 382.22C1345.26 386.9 1350.72 390.41 1357.22 392.75C1363.98 394.83 1371 395.87 1378.28 395.87C1393.62 395.87 1404.93 394.83 1412.21 392.75C1419.49 390.67 1423.13 385.86 1423.13 378.32V296.42C1423.13 282.64 1418.97 272.63 1410.65 266.39C1402.33 259.89 1390.5 256.64 1375.16 256.64C1364.24 256.64 1352.93 258.46 1341.23 262.1C1329.53 265.48 1319.91 270.29 1312.37 276.53V238.31C1319.65 233.37 1330.18 229.47 1343.96 226.61C1358 223.49 1372.43 221.93 1387.25 221.93C1394.53 221.93 1401.81 222.71 1409.09 224.27C1416.63 225.57 1423.65 227.78 1430.15 230.9C1436.65 233.76 1442.37 237.79 1447.31 242.99C1452.51 247.93 1456.54 254.04 1459.4 261.32C1462.26 268.6 1463.69 277.18 1463.69 287.06V380.66C1463.69 393.4 1459.66 403.28 1451.6 410.3C1443.8 417.06 1433.14 421.61 1419.62 423.95C1406.1 426.55 1390.76 427.85 1373.6 427.85Z" fill="white"/>
</svg>
